<?xml version="1.0" encoding="UTF-8" standalone="no"?>
<!-- Created with Inkscape (http://www.inkscape.org/) -->

<svg
   xmlns:dc="http://purl.org/dc/elements/1.1/"
   xmlns:cc="http://creativecommons.org/ns#"
   xmlns:rdf="http://www.w3.org/1999/02/22-rdf-syntax-ns#"
   xmlns:svg="http://www.w3.org/2000/svg"
   xmlns="http://www.w3.org/2000/svg"
   xmlns:sodipodi="http://sodipodi.sourceforge.net/DTD/sodipodi-0.dtd"
   xmlns:inkscape="http://www.inkscape.org/namespaces/inkscape"
   version="1.1"
   id="svg815"
   width="165"
   height="165"
   viewBox="0 0 165 165"
   sodipodi:docname="ipa.svg"
   inkscape:version="0.92.3 (2405546, 2018-03-11)">
  <metadata
     id="metadata821">
    <rdf:RDF>
      <cc:Work
         rdf:about="">
        <dc:format>image/svg+xml</dc:format>
        <dc:type
           rdf:resource="http://purl.org/dc/dcmitype/StillImage" />
        <dc:title></dc:title>
      </cc:Work>
    </rdf:RDF>
  </metadata>
  <defs
     id="defs819" />
  <sodipodi:namedview
     pagecolor="#ffffff"
     bordercolor="#666666"
     borderopacity="1"
     objecttolerance="10"
     gridtolerance="10"
     guidetolerance="10"
     inkscape:pageopacity="0"
     inkscape:pageshadow="2"
     inkscape:window-width="1920"
     inkscape:window-height="1001"
     id="namedview817"
     showgrid="false"
     inkscape:zoom="4.8969697"
     inkscape:cx="82.5"
     inkscape:cy="82.5"
     inkscape:window-x="-9"
     inkscape:window-y="-9"
     inkscape:window-maximized="1"
     inkscape:current-layer="svg815" />
  <path
     style="fill:#000000"
     d="m 61.5,153.40315 c -8.031334,-1.88011 -10.700161,-2.90864 -11.519414,-4.43942 -1.232603,-2.30315 0.216268,-3.45108 7.533095,-5.96844 7.258886,-2.49742 12.289231,-6.27934 14.092424,-10.59499 1.839325,-4.40213 1.775873,-14.40517 -0.121455,-19.14706 -1.358367,-3.39489 -2.057632,-3.91487 -6.75,-5.01936 C 51.615592,105.14594 40.0543,96.798637 35.063522,86.811205 32.355453,81.391879 32,79.678831 32,72.047046 32,65.848004 32.691559,61.028907 34.45252,54.956768 37.789239,43.45111 47.696621,17.805533 49.15232,16.905861 c 3.308724,-2.044904 55.83299,-2.397774 60.9859,-0.409717 3.09261,1.193166 15.64472,34.851136 17.9641,48.169999 1.31234,7.536051 0.55875,15.039689 -2.11907,21.099973 -4.14807,9.387653 -17.89001,19.448494 -30.674165,22.457384 -3.903877,0.91881 -5.471158,1.8368 -6.321194,3.70242 -1.660859,3.64519 -2.346115,11.1996 -1.51727,16.72673 0.977269,6.5169 6.00146,11.34305 14.886639,14.29985 10.17971,3.38759 10.94721,6.02151 2.64274,9.06935 -3.45406,1.26768 -39.144164,2.40098 -43.5,1.3813 z m 34.045117,-2.38088 c 3.874814,-0.50379 8.374813,-1.44925 10.000003,-2.10103 l 2.95488,-1.18505 -5.61057,-1.72412 c -7.469343,-2.29533 -14.739109,-7.40805 -16.489215,-11.59665 -1.91075,-4.57307 -1.82258,-18.31935 0.14911,-23.24709 1.401493,-3.50268 2.04556,-3.98346 6.75,-5.03873 12.854315,-2.88339 24.286645,-11.00704 29.229035,-20.769735 2.62519,-5.185526 2.94646,-6.780485 2.79182,-13.859865 -0.19531,-8.94119 -1.64862,-14.323331 -10.02904,-37.141049 l -5.56095,-15.14105 -3.61509,-0.597945 c -4.71163,-0.779313 -47.533057,-0.7769 -52.248339,0.0029 l -3.633239,0.600889 -6.156073,15.974674 C 33.38992,62.932016 31.79514,74.742001 37.276849,85.559632 42.0469,94.972875 53.892614,103.266 66.644422,106.11973 c 4.817595,1.07813 5.398946,1.51926 6.956288,5.27836 2.290392,5.52854 2.319027,18.92265 0.04984,23.31078 -2.315978,4.47861 -7.272856,7.95076 -15.276004,10.70041 l -6.874543,2.3619 3,1.19409 c 6.810932,2.71096 27.890158,3.76736 41.045117,2.057 z M 112.47608,52.924639 c -0.36228,-1.141448 -0.36814,-2.365916 -0.013,-2.721039 0.74946,-0.749461 2.49914,1.711282 2.52162,3.5464 0.0248,2.026691 -1.79325,1.428522 -2.50861,-0.825361 z m -2.87814,-6.319273 c 0.27285,-0.711028 -0.42507,-3.62977 -1.55093,-6.486092 -2.16516,-5.493054 -2.71624,-9.207354 -1.12304,-7.569274 1.07912,1.109507 5.07479,11.416891 5.07553,13.093011 2.7e-4,0.628656 -0.65158,1.393239 -1.44857,1.699073 -0.91028,0.349305 -1.26462,0.07538 -0.95299,-0.736718 z"
     id="path55277"
     inkscape:connector-curvature="0"
     sodipodi:nodetypes="ccssscsssssssccsssccsccsssssscsccsssssscsccccccccscccc" />
</svg>
