<?xml version="1.0" encoding="UTF-8" standalone="no"?>
<!-- Created with Inkscape (http://www.inkscape.org/) -->

<svg
   xmlns:dc="http://purl.org/dc/elements/1.1/"
   xmlns:cc="http://creativecommons.org/ns#"
   xmlns:rdf="http://www.w3.org/1999/02/22-rdf-syntax-ns#"
   xmlns:svg="http://www.w3.org/2000/svg"
   xmlns="http://www.w3.org/2000/svg"
   xmlns:sodipodi="http://sodipodi.sourceforge.net/DTD/sodipodi-0.dtd"
   xmlns:inkscape="http://www.inkscape.org/namespaces/inkscape"
   version="1.1"
   id="svg55279"
   width="261"
   height="261"
   viewBox="0 0 261 261"
   sodipodi:docname="mug.svg"
   inkscape:version="0.92.3 (2405546, 2018-03-11)">
  <metadata
     id="metadata55285">
    <rdf:RDF>
      <cc:Work
         rdf:about="">
        <dc:format>image/svg+xml</dc:format>
        <dc:type
           rdf:resource="http://purl.org/dc/dcmitype/StillImage" />
        <dc:title></dc:title>
      </cc:Work>
    </rdf:RDF>
  </metadata>
  <defs
     id="defs55283" />
  <sodipodi:namedview
     pagecolor="#ffffff"
     bordercolor="#666666"
     borderopacity="1"
     objecttolerance="10"
     gridtolerance="10"
     guidetolerance="10"
     inkscape:pageopacity="0"
     inkscape:pageshadow="2"
     inkscape:window-width="1920"
     inkscape:window-height="1001"
     id="namedview55281"
     showgrid="false"
     inkscape:zoom="0.90421456"
     inkscape:cx="130.5"
     inkscape:cy="130.5"
     inkscape:window-x="-9"
     inkscape:window-y="-9"
     inkscape:window-maximized="1"
     inkscape:current-layer="svg55279" />
  <path
     style="fill:#000000"
     d="m 121.14073,241.96204 c -11.75422,-1.13165 -19.51291,-2.55219 -22.960746,-4.20387 L 95.5,236.47433 95.231875,213.36161 94.963751,190.2489 86.731875,189.76401 C 73.156138,188.96434 60.397142,182.75621 54.64248,174.1503 43.326344,157.2274 39.528909,111.95325 47.07668,83.948606 52.686555,63.134178 63.436648,54.491831 85.25,53.259841 L 95,52.709173 v -12.63208 c 0,-15.771725 0.330156,-16.367042 10.26058,-18.501238 26.08756,-5.606609 83.44839,-4.373241 95.98942,2.063956 L 204,25.05136 v 105.89161 105.89161 l -4.25,1.55587 c -2.3375,0.85572 -7.625,2.03945 -11.75,2.63051 -10.02225,1.43606 -55.12413,2.07089 -66.85927,0.94108 z M 187.5,238.03276 c 3.85,-0.58858 8.4625,-1.54664 10.25,-2.12901 L 201,234.8449 V 130.95763 c 0,-101.102189 -0.051,-103.914568 -1.90318,-104.905815 -1.04675,-0.560204 -6.10925,-1.799125 -11.25,-2.753158 -13.36686,-2.480652 -62.20347,-2.504815 -75.47724,-0.03734 -5.02173,0.933493 -10.2585,2.126155 -11.63726,2.650358 l -2.506835,0.953097 -0.05097,103.496438 c -0.04126,83.79099 0.196745,103.70202 1.250073,104.5762 1.652322,1.37131 9.756012,2.87315 21.716142,4.02463 11.76002,1.13221 57.02072,0.49839 66.35927,-0.92928 z M 191.66667,94.33333 C 190.61324,93.2799 190.89112,88 192,88 c 0.55,0 1,1.575 1,3.5 0,3.59671 -0.18239,3.98428 -1.33333,2.83333 z M 191,62.559017 C 191,49.519672 191.36576,42 192,42 c 0.63323,0 1,7.313661 1,19.940983 0,12.215299 -0.38743,20.180426 -1,20.559017 -0.65428,0.404368 -1,-6.489616 -1,-19.940983 z M 95,181.12917 v -5.87084 l -6.25,-0.6863 C 71.789936,172.70966 65.431186,166.63418 61.400484,148.4409 59.016509,137.68041 58.97218,102.2476 61.328258,90.709681 64.738749,74.008208 69.68693,69.497287 85.855798,68.349588 L 95.09068,67.694078 94.79534,62.097039 94.5,56.5 88.214193,56.201353 C 76.092844,55.625452 62.324913,61.168388 56.877381,68.817479 53.519818,73.531962 49.625195,84.423544 47.872589,94 c -2.026323,11.07209 -1.739495,41.07906 0.501302,52.4445 2.109902,10.70154 5.117082,19.74927 8.189021,24.6384 5.869922,9.34225 18.665255,15.63423 32.187088,15.82768 L 95,187 Z m 0,-59.7777 V 70.702936 l -8.398466,0.592688 C 72.722849,72.275057 68.92237,75.008655 65.46312,86.5 c -2.611706,8.67587 -3.936191,32.67176 -2.634487,47.72939 1.583498,18.31733 3.902082,25.36143 10.336048,31.40199 4.115553,3.86391 10.120926,5.87776 18.585319,6.23244 L 95,172 Z"
     id="path55832"
     inkscape:connector-curvature="0" />
</svg>
